<?xml version="1.0" encoding="utf-8"?>
<!-- Generator: Adobe Illustrator 24.0.0, SVG Export Plug-In . SVG Version: 6.00 Build 0)  -->
<svg version="1.1" id="Layer_1" xmlns="http://www.w3.org/2000/svg" xmlns:xlink="http://www.w3.org/1999/xlink" x="0px" y="0px"
	 viewBox="0 0 1600 1200" style="enable-background:new 0 0 1600 1200;" xml:space="preserve">
<style type="text/css">
	.st0{fill:none;stroke:#44AB96;stroke-width:13;stroke-linecap:round;stroke-linejoin:round;}
	.st1{fill:none;stroke:#E53855;stroke-width:13;stroke-linecap:round;stroke-linejoin:round;}
	.st2{fill:none;stroke:#FFB017;stroke-width:13;stroke-linecap:round;stroke-linejoin:round;}
	.st3{fill:none;stroke:#DA774A;stroke-width:13;stroke-linecap:round;stroke-linejoin:round;}
	.st4{fill:none;stroke:#683F99;stroke-width:13;stroke-linecap:round;stroke-linejoin:round;}
</style>
<title>Taieri</title>
<desc>Created with Sketch.</desc>
<g id="Patterns">
	<g id="Taieri">
		<g id="Shape" transform="translate(0.000000, -106.000000)">
			<path class="st0" d="M1600,999c0,32-25.7,58-57.5,58s-57.5-26-57.5-58"/>
			<path class="st1" d="M1600,155c-39.8,0-72-32.5-72-72.5c0-40,32.2-72.5,72-72.5"/>
			<path class="st0" d="M562,68.9c0,33.2,26.9,60.1,60,60.1s60-26.9,60-60.1V1"/>
			<path class="st2" d="M137.2,1412C62.5,1412,2,1351.8,2,1277.5S62.5,1143,137.2,1143H261"/>
			<path class="st0" d="M129,1320c-24.8,0-45-19.5-45-43.5s20.1-43.5,45-43.5h48"/>
			<path class="st3" d="M1600,462V293.7c0-33-26.9-59.7-60-59.7s-60,26.7-60,59.7v26.1"/>
			<path class="st3" d="M673,965.5H493.6c-45.2,0-81.9,36.5-81.9,81.5c0,45,36.7,81.5,81.9,81.5h74.1 M366.8,1412h-10.7
				c-31.6,0-57.1-25.6-57.1-57.2c0-31.6,25.6-57.2,57.1-57.2h127.6c46.6,0,84.4-37.8,84.4-84.5 M389.8,588v64.3
				c0,78.3,63.4,141.8,141.6,141.8h56.4c47.1,0,85.2,38.2,85.2,85.3"/>
			<circle class="st0" cx="588" cy="393" r="40"/>
			<ellipse class="st1" cx="698" cy="1195.5" rx="58" ry="57.5"/>
			<circle class="st0" cx="184" cy="257" r="63"/>
			<path class="st2" d="M184.5,394c77.6,0,140.5-62,140.5-138.5S262.1,117,184.5,117S44,179,44,255.5"/>
			<path class="st0" d="M1311.2,1224.5c-21.3,79.8,24.8,161.6,103.1,182.6c78.3,21,159.1-26.6,180.4-106.5
				c21.3-79.8-24.8-161.6-103.1-182.6"/>
			<path class="st3" d="M481.8,1213c-85,0-153.8-75.4-153.8-168.5c0-32.3,8.3-62.5,22.7-88.1 M587,875H482.2
				c-33.5,0-64.6,11.6-89.8,31.3"/>
			<path class="st0" d="M328.5,414c-31.8,0-57.5,25.7-57.5,57.5s25.7,57.5,57.5,57.5s57.5-25.7,57.5-57.5V414"/>
			<path class="st1" d="M346,77.5c0,42.2,34,76.5,76,76.5s76-34.3,76-76.5C498,35.3,464,1,422,1h-76"/>
			<path class="st0" d="M71.5,866.6C34.8,866.6,5,837.1,5,800.8S34.8,735,71.5,735c36.7,0,66.5,29.5,66.5,65.8V1002"/>
			<path class="st0" d="M1462,870c0,33.7,26.9,61,60,61s60-27.3,60-61s-26.9-61-60-61h-201"/>
			<path class="st4" d="M966,139.8c-35.3,0-64,28.3-64,63.1s28.7,63.1,64,63.1s64-28.3,64-63.1V0"/>
			<path class="st0" d="M914.9,1354c0-32,25.8-58,57.5-58c31.8,0,57.5,26,57.5,58s-25.8,58-57.5,58H881"/>
			<path class="st3" d="M1089.5,562.6c31.8,0,57.5,25.6,57.5,57.2s-25.7,57.2-57.5,57.2s-57.5-25.6-57.5-57.2V406"/>
			<path class="st3" d="M62.5,568.7C30.7,568.7,5,594.1,5,625.4C5,656.6,30.7,682,62.5,682s57.5-25.4,57.5-56.6V394"/>
			<path class="st2" d="M688.7,394c0-56.9-45.4-103-101.4-103c-56,0-101.4,46.1-101.4,103s45.4,103,101.4,103H853"/>
			<path class="st0" d="M1498.6,727c56,0,101.4-46.1,101.4-103s-45.4-103-101.4-103H1233"/>
			<path class="st3" d="M1107,175.5c0-53.3,42.7-96.5,95.5-96.5h98.1c52.7,0,95.5,43.2,95.5,96.5l0,0c0,53.3-42.7,96.5-95.5,96.5
				h-98.1C1149.7,272,1107,228.8,1107,175.5L1107,175.5z"/>
			<path class="st2" d="M266.5,871c-32.9,0-59.5-26.6-59.5-59.4V642.4c0-32.8,26.6-59.4,59.5-59.4l0,0c32.9,0,59.5,26.6,59.5,59.4
				v169.2C326,844.4,299.4,871,266.5,871L266.5,871z"/>
			<path class="st1" d="M828,795.5v-89.3c0-25.5,20.8-46.2,46.5-46.2l0,0c25.7,0,46.5,20.7,46.5,46.2v178.7
				c0,25.5-20.8,46.2-46.5,46.2l0,0l0,0c-25.7,0-46.5-20.7-46.5-46.2v-21.6"/>
			<path class="st2" d="M914,317.9v7.8c0,44.3-36,80.3-80.5,80.3l0,0c-44.5,0-80.5-35.9-80.5-80.3V81.3C753,36.9,789,1,833.5,1l0,0
				C878,1,914,36.9,914,81.3v2.4"/>
			<path class="st2" d="M71.8,952h-4.8C32.7,952,5,979.8,5,1014l0,0c0,34.2,27.7,62,61.9,62h143.1c34.2,0,61.9-27.8,61.9-62l0,0
				c0-34.2-27.7-62-61.9-62h-4.8"/>
			<path class="st0" d="M751,660v231.6c0,69.2,56.6,125.4,126.5,125.4S1004,960.9,1004,891.6v-54.7"/>
			<path class="st0" d="M497,1052h207.8c79.1,0,143.2,64.5,143.2,144c0,79.5-64.1,144-143.2,144h-62.5"/>
			<path class="st4" d="M586,701h-49.2c-33,0-59.8-26.9-59.8-60s26.8-60,59.8-60h98.4c33,0,59.8,26.9,59.8,60v5.3
				c0,30.2-24.4,54.7-54.5,54.7"/>
			<path class="st0" d="M1089.5,472h56.2c37.7,0,68.3-28.9,68.3-64.5s-30.6-64.5-68.3-64.5h-112.4c-37.7,0-68.3,28.9-68.3,64.5"/>
			<path class="st0" d="M675,203H540.3C455.1,203,386,272.4,386,358"/>
			<path class="st1" d="M1449.5,1206.8c31.8,0,57.5,25.6,57.5,57.1s-25.7,57.1-57.5,57.1s-57.5-25.6-57.5-57.1V892"/>
			<path class="st0" d="M1019,1244c0-58.5,46.8-106,104.6-106H1308"/>
			<path class="st4" d="M747,581h98.4c66.1,0,119.6-53.7,119.6-120"/>
			<path class="st4" d="M1321,894v53.8c0,54.3-44,98.2-98.3,98.2H1146"/>
			<path class="st3" d="M1507,626h-84c-60.8,0-110,49.7-110,111"/>
			<path class="st0" d="M218,1412v-91.1c0-52.5,41-96.4,96-107.9"/>
			<path class="st0" d="M44.5,326c0,9.3,0,126.5,0,184"/>
			<path class="st0" d="M1088.5,749c0,7.7,0,104.5,0,152"/>
			<path class="st0" d="M934.5,1162c0,3.1,0,42.6,0,62"/>
			<path class="st2" d="M1233,587v142.3c0,22.4-18.3,40.5-40.9,40.5s-40.9,18.2-40.9,40.6v8.4c0,22.4,18.3,40.6,40.9,40.6
				s40.9,18.2,40.9,40.6v9.3c0,27.5-22.5,49.9-50.2,49.9h-26h-38.1 M954,1092h26.8c55.3,0,100.2-44.8,100.2-100.1"/>
			<path class="st1" d="M1481,389.9v20.3c0,28.6-23.3,51.8-51.9,51.8l0,0c-28.7,0-52-23.2-52-51.8v-16.8c0-28.4-23.1-51.4-51.5-51.4
				l0,0c-28.5,0-51.6,23-51.6,51.4v20.7"/>
			<path class="st4" d="M1089,1286c0-40.3,32.7-73,73-73l0,0c40.3,0,73,32.7,73,73v53.1c0,40.3-32.7,73-73,73l0,0
				c-40.3,0-73-32.7-73-73V1286z"/>
		</g>
	</g>
</g>
</svg>
