<svg id="Layer_1" data-name="Layer 1" xmlns="http://www.w3.org/2000/svg" viewBox="0 0 548.39 384.38"><defs><style>.cls-1{fill:#0a0a0a;}</style></defs><title>122Artboard 1</title><path d="M0,215.06.39,292a11,11,0,0,0,11,11H27.88a68.28,68.28,0,1,0,134,0H301.81A68.25,68.25,0,0,0,424,356.3a68.2,68.2,0,0,0,58.3,28c36.61-1.65,65.13-32.5,65.13-69.15V286.07A26.07,26.07,0,0,0,521.32,260H178.39L178,130.86a20.43,20.43,0,0,0-20.43-20.36H104.62a59,59,0,0,0-42,17.7l-47,48.17A55,55,0,0,0,0,215.06ZM451.23,318.68a28,28,0,1,1,25.6,25.61A28,28,0,0,1,451.23,318.68Zm-110.29,0a28,28,0,1,1,25.61,25.61A28,28,0,0,1,340.94,318.68Zm-273.61,0a28,28,0,1,1,25.61,25.61A28,28,0,0,1,67.33,318.68ZM57.39,193l34.94-35.82A17.21,17.21,0,0,1,104.62,152h31.77v40.61Z"/><path class="cls-1" d="M206.39,28.25v176.5A28.25,28.25,0,0,0,234.64,233h285.5a28.25,28.25,0,0,0,28.25-28.25V28.25A28.25,28.25,0,0,0,520.14,0H234.64A28.25,28.25,0,0,0,206.39,28.25Zm258,17.17a3.37,3.37,0,0,1,3.38-3.37h21a3.37,3.37,0,0,1,3.38,3.37V189.16a3.38,3.38,0,0,1-3.38,3.38h-21a3.38,3.38,0,0,1-3.38-3.38Zm-68.2,0a3.37,3.37,0,0,1,3.37-3.37h21A3.37,3.37,0,0,1,424,45.42V189.16a3.38,3.38,0,0,1-3.37,3.38h-21a3.38,3.38,0,0,1-3.37-3.38Zm-68.21,0a3.37,3.37,0,0,1,3.38-3.37h21a3.37,3.37,0,0,1,3.38,3.37V189.16a3.38,3.38,0,0,1-3.38,3.38h-21a3.38,3.38,0,0,1-3.38-3.38Zm-68.2,0a3.37,3.37,0,0,1,3.38-3.37h21a3.37,3.37,0,0,1,3.38,3.37V189.16a3.38,3.38,0,0,1-3.38,3.38h-21a3.38,3.38,0,0,1-3.38-3.38Z"/></svg>