<svg id="Layer_1" data-name="Layer 1" xmlns="http://www.w3.org/2000/svg" viewBox="0 0 548.39 384.38"><defs><style>.cls-1{fill:#0a0a0a;}</style></defs><title>Artboard 1</title><path d="M532.75,176.37l-47-48.17a59,59,0,0,0-42-17.7h-52.9a20.43,20.43,0,0,0-20.43,20.36L370,260H27.07A26.07,26.07,0,0,0,1,286.07v29.08c0,36.65,28.52,67.5,65.13,69.15a68.2,68.2,0,0,0,58.3-28A68.26,68.26,0,0,0,246.58,303H386.49a68.28,68.28,0,1,0,134,0H537a11,11,0,0,0,11-11l.39-76.95A55,55,0,0,0,532.75,176.37ZM71.55,344.29a28,28,0,1,1,25.61-25.61A28,28,0,0,1,71.55,344.29Zm110.29,0a28,28,0,1,1,25.61-25.61A28,28,0,0,1,181.84,344.29Zm273.61,0a28,28,0,1,1,25.61-25.61A28,28,0,0,1,455.45,344.29ZM412,192.61V152h31.76a17.17,17.17,0,0,1,12.29,5.18L491,193Z"/><path class="cls-1" d="M313.75,0H28.25A28.25,28.25,0,0,0,0,28.25v176.5A28.25,28.25,0,0,0,28.25,233h285.5A28.25,28.25,0,0,0,342,204.75V28.25A28.25,28.25,0,0,0,313.75,0ZM84,189.16a3.38,3.38,0,0,1-3.38,3.38h-21a3.38,3.38,0,0,1-3.38-3.38V45.42a3.37,3.37,0,0,1,3.38-3.37h21A3.37,3.37,0,0,1,84,45.42Zm68.2,0a3.38,3.38,0,0,1-3.38,3.38h-21a3.38,3.38,0,0,1-3.38-3.38V45.42a3.37,3.37,0,0,1,3.38-3.37h21a3.37,3.37,0,0,1,3.38,3.37Zm68.2,0a3.38,3.38,0,0,1-3.37,3.38H196a3.38,3.38,0,0,1-3.37-3.38V45.42A3.37,3.37,0,0,1,196,42.05h21a3.37,3.37,0,0,1,3.37,3.37Zm68.21,0a3.38,3.38,0,0,1-3.38,3.38h-21a3.38,3.38,0,0,1-3.38-3.38V45.42a3.37,3.37,0,0,1,3.38-3.37h21a3.37,3.37,0,0,1,3.38,3.37Z"/></svg>